<svg width="729" height="165" viewBox="0 0 729 165" fill="none" xmlns="http://www.w3.org/2000/svg">
<path d="M82.3203 0C127.785 0.000166176 164.64 36.8546 164.64 82.3193C164.64 127.784 127.785 164.639 82.3203 164.64C36.8554 164.64 0 127.784 0 82.3193C0.000130726 36.8545 36.8555 0 82.3203 0ZM82.3203 16.3652C45.892 16.3652 16.3663 45.891 16.3662 82.3193C16.3662 118.748 45.8919 148.273 82.3203 148.273C118.749 148.273 148.274 118.748 148.274 82.3193C148.274 45.8911 118.749 16.3654 82.3203 16.3652ZM403.74 70.6895H420V81.7002H403.74V103.72C403.74 110.01 407.41 113.68 413.7 113.68C418.408 113.68 421.554 111.591 421.57 111.58L424.72 122.069C424.682 122.09 418.93 125.22 412.66 125.22C397.98 125.22 390.11 117.35 390.11 103.72V81.7002H381.2V70.6895H390.11L395.351 56.0098H403.74V70.6895ZM456.71 68.5898C472.97 68.5898 484.5 80.1296 484.5 96.8994L477.681 103.189H443.49C445.69 108.959 450.41 113.68 460.37 113.68C468.741 113.68 473.977 109.498 474 109.479L479.24 118.92C479.201 118.951 471.35 125.21 459.311 125.21C440.961 125.21 428.9 113.149 428.9 96.8994H428.92C428.92 80.1198 440.45 68.59 456.71 68.5898ZM565.28 68.5801C582.06 68.5802 590.97 77.4896 590.97 91.6494V121.54C590.912 121.558 578.877 125.21 565.28 125.21C546.93 125.21 539.06 117.339 539.06 106.859H539.05C539.05 96.3695 546.91 88.5098 565.27 88.5098C571.98 88.5098 577.33 89.5596 577.33 89.5596C577.33 83.7896 573.66 80.1191 565.27 80.1191C556.88 80.1192 550.59 83.79 550.59 83.79L545.35 74.3496C545.35 74.3496 552.69 68.5801 565.28 68.5801ZM343.97 68.5898C361.8 68.5898 371.76 78.5496 371.76 92.1895V123.13H358.13V92.1895C358.13 85.3696 352.89 80.1299 343.97 80.1299C338.2 80.1299 332.439 81.7002 332.439 81.7002V123.12H318.81V73.3096H318.8C318.839 73.2955 331.928 68.5899 343.97 68.5898ZM631.35 68.5898C649.179 68.5898 659.139 78.5496 659.14 92.1895V123.13H645.51V92.1895C645.51 85.3696 640.269 80.1299 631.35 80.1299C625.58 80.1299 619.819 81.7002 619.819 81.7002V123.12H606.189V73.3096H606.18C606.219 73.2955 619.308 68.5899 631.35 68.5898ZM306.73 61.7695H262.68V80.6504H293.09V92.71H262.68V111.06H307.77V123.12H248V49.71H306.73V61.7695ZM687.45 49.71V93.2295H687.98L710 70.6797H725.73L704.761 92.1797L728.36 123.12H712.63L696.37 101.62L687.46 110.529V123.109H673.83V49.71H687.45ZM517.55 68.5898C527.72 68.5899 535.38 72.7803 535.38 72.7803L531.71 83.2695C531.701 83.2642 526.463 80.1201 518.6 80.1201C513.88 80.1202 509.689 81.6895 509.689 81.6895V123.109H496.06V73.3047C496.415 73.138 506.221 68.5898 517.55 68.5898ZM565.27 100.05C556.36 100.05 553.21 103.199 553.21 106.869C553.21 110.539 556.36 113.689 565.27 113.689C571.56 113.689 577.33 112.119 577.33 112.119V101.1C577.33 101.1 571.56 100.05 565.27 100.05ZM90.4902 64.6172H58.8496V78.1777H80.7002V86.8447H58.8496V100.029H91.2432V108.695H48.3008V55.9512H90.4902V64.6172ZM456.71 80.1201C449.89 80.1203 444.65 85.3599 443.5 92.1797H469.82C468.77 85.3598 463.53 80.1201 456.71 80.1201ZM107.051 55.5176C113.608 55.5176 117.059 58.9693 117.06 63.4561C117.06 68.6146 112.605 70.347 112.573 70.3594V70.5352L118.955 79.6777H113.264L107.571 71.3945H100.845V79.6777H96.0127V55.5176H107.051ZM496.06 73.3047C496.054 73.3075 496.05 73.3093 496.05 73.3096L496.06 73.2998V73.3047ZM100.845 67.4287H107.051V67.4219C110.326 67.4218 112.052 65.3512 112.052 63.4561C112.052 61.2159 110.326 59.4903 107.051 59.4902H100.845V67.4287ZM673.83 49.71H673.82L673.83 49.7002V49.71Z" fill="url(#paint0_linear_967_1801)"/>
<defs>
<linearGradient id="paint0_linear_967_1801" x1="728.36" y1="-0.000976562" x2="506.924" y2="427.324" gradientUnits="userSpaceOnUse">
<stop stop-color="#DADDF0"/>
<stop offset="1" stop-color="#1E40FF"/>
</linearGradient>
</defs>
</svg>
