<svg width="263" height="263" viewBox="0 0 263 263" fill="none" xmlns="http://www.w3.org/2000/svg">
<path fill-rule="evenodd" clip-rule="evenodd" d="M131.18 0C203.63 0 262.36 58.7298 262.36 131.18C262.36 203.63 203.63 262.36 131.18 262.36C58.7298 262.36 0 203.63 0 131.18C0.000167847 58.7299 58.7299 0.000164925 131.18 0ZM131.18 26.0801C73.1299 26.0802 26.0802 73.1299 26.0801 131.18C26.0801 189.23 73.1298 236.28 131.18 236.28C189.23 236.28 236.28 189.23 236.28 131.18C236.28 73.1298 189.23 26.0801 131.18 26.0801ZM144.2 102.97H93.7793V124.58H128.6V138.391H93.7793V159.4H145.399V173.21H76.9697V89.1602H144.2V102.97ZM170.59 88.4707C181.04 88.4707 186.54 93.9702 186.54 101.12C186.54 109.37 179.39 112.12 179.39 112.12V112.4L189.56 126.971H180.49L171.42 113.771H160.7V126.971H153V88.4707H170.59ZM160.7 107.45H170.59V107.44C175.81 107.44 178.56 104.14 178.56 101.12C178.56 97.5502 175.81 94.7998 170.59 94.7998H160.7V107.45Z" fill="url(#paint0_linear_966_1799)"/>
<defs>
<linearGradient id="paint0_linear_966_1799" x1="262.36" y1="0" x2="-54.2078" y2="138.092" gradientUnits="userSpaceOnUse">
<stop stop-color="#DADDF0"/>
<stop offset="1" stop-color="#1E40FF"/>
</linearGradient>
</defs>
</svg>
